{
  "accessors": [
    {
      "bufferView": 2,
      "componentType": 5126,
      "count": 4434,
      "max": [
        5.524331092834473,
        0.08679600059986115,
        10.670012474060059
      ],
      "min": [
        -9.541142463684082,
        -9.627278327941895,
        -10.670012474060059
      ],
      "type": "VEC3"
    },
    {
      "bufferView": 2,
      "byteOffset": 53208,
      "componentType": 5126,
      "count": 4434,
      "max": [
        0.9816989898681641,
        0.9991453886032104,
        0.998925507068634
      ],
      "min": [
        -0.9999729990959167,
        -0.999945342540741,
        -0.998925507068634
      ],
      "type": "VEC3"
    },
    {
      "bufferView": 1,
      "componentType": 5126,
      "count": 4434,
      "max": [
        0.9918209910392761,
        -0.009979000315070152
      ],
      "min": [
        0.014739999547600746,
        -0.9945369958877563
      ],
      "type": "VEC2"
    },
    {
      "bufferView": 0,
      "componentType": 5125,
      "count": 4446,
      "type": "SCALAR"
    },
    {
      "bufferView": 2,
      "byteOffset": 106416,
      "componentType": 5126,
      "count": 48,
      "max": [
        5.524331092834473,
        -5.62311315536499,
        1.1616569757461548
      ],
      "min": [
        4.665338039398193,
        -6.538536071777344,
        -1.1616569757461548
      ],
      "type": "VEC3"
    },
    {
      "bufferView": 2,
      "byteOffset": 106992,
      "componentType": 5126,
      "count": 48,
      "max": [
        0.8644952774047852,
        -0.10117504000663757,
        0.65616774559021
      ],
      "min": [
        0.6812757849693298,
        -0.3254570960998535,
        -0.65616774559021
      ],
      "type": "VEC3"
    },
    {
      "bufferView": 1,
      "byteOffset": 35472,
      "componentType": 5126,
      "count": 48,
      "max": [
        1.460510015487671,
        -0.023468000814318657
      ],
      "min": [
        1.0184329748153687,
        -0.23318499326705933
      ],
      "type": "VEC2"
    },
    {
      "bufferView": 0,
      "byteOffset": 17784,
      "componentType": 5125,
      "count": 48,
      "type": "SCALAR"
    },
    {
      "bufferView": 2,
      "byteOffset": 107568,
      "componentType": 5126,
      "count": 72,
      "max": [
        5.525150775909424,
        -4.725285053253174,
        0.9990400075912476
      ],
      "min": [
        4.978583812713623,
        -6.538536071777344,
        -0.9990400075912476
      ],
      "type": "VEC3"
    },
    {
      "bufferView": 2,
      "byteOffset": 108432,
      "componentType": 5126,
      "count": 72,
      "max": [
        0.980938732624054,
        0.4005478620529175,
        0.38438910245895386
      ],
      "min": [
        0.8794724345207214,
        -0.0016920007765293121,
        -0.38438910245895386
      ],
      "type": "VEC3"
    },
    {
      "bufferView": 1,
      "byteOffset": 35856,
      "componentType": 5126,
      "count": 72,
      "max": [
        1.6204830408096313,
        -0.03277600184082985
      ],
      "min": [
        1.056946039199829,
        -0.2348019927740097
      ],
      "type": "VEC2"
    },
    {
      "bufferView": 0,
      "byteOffset": 17976,
      "componentType": 5125,
      "count": 72,
      "type": "SCALAR"
    }
  ],
  "asset": {
    "extras": {
      "author": "nguyenlouis32 (https://sketchfab.com/nguyenlouis32)",
      "license": "CC-BY-4.0 (http://creativecommons.org/licenses/by/4.0/)",
      "source": "https://sketchfab.com/3d-models/togekiss-6ee70390907f481a9f202f8a9759cae1",
      "title": "Togekiss"
    },
    "generator": "Sketchfab-13.42.0",
    "version": "2.0"
  },
  "bufferViews": [
    {
      "buffer": 0,
      "byteLength": 18264,
      "name": "floatBufferViews",
      "target": 34963
    },
    {
      "buffer": 0,
      "byteLength": 36432,
      "byteOffset": 18264,
      "byteStride": 8,
      "name": "floatBufferViews",
      "target": 34962
    },
    {
      "buffer": 0,
      "byteLength": 109296,
      "byteOffset": 54696,
      "byteStride": 12,
      "name": "floatBufferViews",
      "target": 34962
    }
  ],
  "buffers": [
    {
      "byteLength": 163992,
      "uri": "scene.bin"
    }
  ],
  "images": [
    {
      "uri": "textures/TogekissDh_baseColor.png"
    },
    {
      "uri": "textures/TogekissEyeDh_baseColor.png"
    },
    {
      "uri": "textures/TogekissMouthDh_baseColor.png"
    }
  ],
  "materials": [
    {
      "doubleSided": true,
      "name": "TogekissDh",
      "pbrMetallicRoughness": {
        "baseColorTexture": {
          "index": 0
        },
        "metallicFactor": 0.0,
        "roughnessFactor": 0.6
      }
    },
    {
      "doubleSided": true,
      "name": "TogekissEyeDh",
      "pbrMetallicRoughness": {
        "baseColorTexture": {
          "index": 1
        },
        "metallicFactor": 0.0,
        "roughnessFactor": 0.6
      }
    },
    {
      "doubleSided": true,
      "name": "TogekissMouthDh",
      "pbrMetallicRoughness": {
        "baseColorTexture": {
          "index": 2
        },
        "metallicFactor": 0.0,
        "roughnessFactor": 0.6
      }
    }
  ],
  "meshes": [
    {
      "name": "Object_0",
      "primitives": [
        {
          "attributes": {
            "NORMAL": 1,
            "POSITION": 0,
            "TEXCOORD_0": 2
          },
          "indices": 3,
          "material": 0,
          "mode": 4
        }
      ]
    },
    {
      "name": "Object_1",
      "primitives": [
        {
          "attributes": {
            "NORMAL": 5,
            "POSITION": 4,
            "TEXCOORD_0": 6
          },
          "indices": 7,
          "material": 1,
          "mode": 4
        }
      ]
    },
    {
      "name": "Object_2",
      "primitives": [
        {
          "attributes": {
            "NORMAL": 9,
            "POSITION": 8,
            "TEXCOORD_0": 10
          },
          "indices": 11,
          "material": 2,
          "mode": 4
        }
      ]
    }
  ],
  "nodes": [
    {
      "children": [
        1
      ],
      "matrix": [
        -0.0007894915761426091,
        -2.220445387505823e-16,
        0.9999997019767761,
        0.0,
        0.0,
        -1.0,
        0.0,
        0.0,
        0.9999997019767761,
        -2.2221990727014753e-16,
        0.0007894915761426091,
        0.0,
        0.0,
        0.0,
        0.0,
        1.0
      ],
      "name": "Sketchfab_model"
    },
    {
      "children": [
        2,
        3,
        4
      ],
      "name": "Togekissout.obj.cleaner.materialmerger.gles"
    },
    {
      "mesh": 0,
      "name": "Object_2"
    },
    {
      "mesh": 1,
      "name": "Object_3"
    },
    {
      "mesh": 2,
      "name": "Object_4"
    }
  ],
  "samplers": [
    {
      "magFilter": 9729,
      "minFilter": 9987,
      "wrapS": 10497,
      "wrapT": 10497
    }
  ],
  "scene": 0,
  "scenes": [
    {
      "name": "Sketchfab_Scene",
      "nodes": [
        0
      ]
    }
  ],
  "textures": [
    {
      "sampler": 0,
      "source": 0
    },
    {
      "sampler": 0,
      "source": 1
    },
    {
      "sampler": 0,
      "source": 2
    }
  ]
}
