{
  "accessors": [
    {
      "bufferView": 2,
      "componentType": 5126,
      "count": 14,
      "max": [
        1.6653300523757935,
        8.906698226928711,
        6.154675483703613
      ],
      "min": [
        -1.6653300523757935,
        7.916178226470947,
        4.899085521697998
      ],
      "type": "VEC3"
    },
    {
      "bufferView": 2,
      "byteOffset": 168,
      "componentType": 5126,
      "count": 14,
      "max": [
        0.7846150994300842,
        0.20766495168209076,
        0.9797305464744568
      ],
      "min": [
        -0.7846150994300842,
        -0.572037935256958,
        0.5959170460700989
      ],
      "type": "VEC3"
    },
    {
      "bufferView": 1,
      "componentType": 5126,
      "count": 14,
      "max": [
        0.484375,
        0.9960939884185791
      ],
      "min": [
        0.011718999594449997,
        0.7539060115814209
      ],
      "type": "VEC2"
    },
    {
      "bufferView": 0,
      "componentType": 5125,
      "count": 36,
      "type": "SCALAR"
    },
    {
      "bufferView": 2,
      "byteOffset": 336,
      "componentType": 5126,
      "count": 963,
      "max": [
        4.028674602508545,
        13.997591018676758,
        6.610716342926025
      ],
      "min": [
        -4.028662204742432,
        -0.003290689317509532,
        -9.193573951721191
      ],
      "type": "VEC3"
    },
    {
      "bufferView": 2,
      "byteOffset": 11892,
      "componentType": 5126,
      "count": 963,
      "max": [
        1.0,
        0.9995669722557068,
        0.9968396425247192
      ],
      "min": [
        -1.0,
        -0.9990716576576233,
        -0.9990443587303162
      ],
      "type": "VEC3"
    },
    {
      "bufferView": 1,
      "byteOffset": 112,
      "componentType": 5126,
      "count": 963,
      "max": [
        0.9951170086860657,
        0.9955750107765198
      ],
      "min": [
        0.005493000149726868,
        0.005127000156790018
      ],
      "type": "VEC2"
    },
    {
      "bufferView": 0,
      "byteOffset": 144,
      "componentType": 5125,
      "count": 4374,
      "type": "SCALAR"
    },
    {
      "bufferView": 2,
      "byteOffset": 23448,
      "componentType": 5126,
      "count": 14,
      "max": [
        1.6653300523757935,
        8.906698226928711,
        6.154675483703613
      ],
      "min": [
        -1.6653300523757935,
        7.916178226470947,
        4.899085521697998
      ],
      "type": "VEC3"
    },
    {
      "bufferView": 2,
      "byteOffset": 23616,
      "componentType": 5126,
      "count": 14,
      "max": [
        0.7846150994300842,
        0.20766495168209076,
        0.9797305464744568
      ],
      "min": [
        -0.7846150994300842,
        -0.572037935256958,
        0.5959170460700989
      ],
      "type": "VEC3"
    },
    {
      "bufferView": 1,
      "byteOffset": 7816,
      "componentType": 5126,
      "count": 14,
      "max": [
        0.484375,
        0.9960939884185791
      ],
      "min": [
        0.011718999594449997,
        0.7539060115814209
      ],
      "type": "VEC2"
    },
    {
      "bufferView": 0,
      "byteOffset": 17640,
      "componentType": 5125,
      "count": 36,
      "type": "SCALAR"
    },
    {
      "bufferView": 2,
      "byteOffset": 23784,
      "componentType": 5126,
      "count": 963,
      "max": [
        4.028674602508545,
        13.997591018676758,
        6.610716342926025
      ],
      "min": [
        -4.028662204742432,
        -0.003290689317509532,
        -9.193573951721191
      ],
      "type": "VEC3"
    },
    {
      "bufferView": 2,
      "byteOffset": 35340,
      "componentType": 5126,
      "count": 963,
      "max": [
        1.0,
        0.9995669722557068,
        0.9968396425247192
      ],
      "min": [
        -1.0,
        -0.9990716576576233,
        -0.9990443587303162
      ],
      "type": "VEC3"
    },
    {
      "bufferView": 1,
      "byteOffset": 7928,
      "componentType": 5126,
      "count": 963,
      "max": [
        0.9951170086860657,
        0.9955750107765198
      ],
      "min": [
        0.005493000149726868,
        0.005127000156790018
      ],
      "type": "VEC2"
    },
    {
      "bufferView": 0,
      "byteOffset": 17784,
      "componentType": 5125,
      "count": 4374,
      "type": "SCALAR"
    }
  ],
  "asset": {
    "extras": {
      "author": "nguyenlouis32 (https://sketchfab.com/nguyenlouis32)",
      "license": "CC-BY-4.0 (http://creativecommons.org/licenses/by/4.0/)",
      "source": "https://sketchfab.com/3d-models/luxray-5ff59436ab14467db46141bc0e1348a0",
      "title": "Luxray"
    },
    "generator": "Sketchfab-13.42.0",
    "version": "2.0"
  },
  "bufferViews": [
    {
      "buffer": 0,
      "byteLength": 35280,
      "name": "floatBufferViews",
      "target": 34963
    },
    {
      "buffer": 0,
      "byteLength": 15632,
      "byteOffset": 35280,
      "byteStride": 8,
      "name": "floatBufferViews",
      "target": 34962
    },
    {
      "buffer": 0,
      "byteLength": 46896,
      "byteOffset": 50912,
      "byteStride": 12,
      "name": "floatBufferViews",
      "target": 34962
    }
  ],
  "buffers": [
    {
      "byteLength": 97808,
      "uri": "scene.bin"
    }
  ],
  "images": [
    {
      "uri": "textures/Material__223_baseColor.png"
    },
    {
      "uri": "textures/Material__224_baseColor.png"
    }
  ],
  "materials": [
    {
      "doubleSided": true,
      "name": "Material__223",
      "pbrMetallicRoughness": {
        "baseColorTexture": {
          "index": 0
        },
        "metallicFactor": 0.0,
        "roughnessFactor": 0.7568902298660286
      }
    },
    {
      "doubleSided": true,
      "name": "Material__224",
      "pbrMetallicRoughness": {
        "baseColorTexture": {
          "index": 1
        },
        "metallicFactor": 0.0,
        "roughnessFactor": 0.7568902298660286
      }
    }
  ],
  "meshes": [
    {
      "name": "Object_0",
      "primitives": [
        {
          "attributes": {
            "NORMAL": 1,
            "POSITION": 0,
            "TEXCOORD_0": 2
          },
          "indices": 3,
          "material": 0,
          "mode": 4
        }
      ]
    },
    {
      "name": "Object_1",
      "primitives": [
        {
          "attributes": {
            "NORMAL": 5,
            "POSITION": 4,
            "TEXCOORD_0": 6
          },
          "indices": 7,
          "material": 1,
          "mode": 4
        }
      ]
    },
    {
      "name": "Object_2",
      "primitives": [
        {
          "attributes": {
            "NORMAL": 9,
            "POSITION": 8,
            "TEXCOORD_0": 10
          },
          "indices": 11,
          "material": 0,
          "mode": 4
        }
      ]
    },
    {
      "name": "Object_3",
      "primitives": [
        {
          "attributes": {
            "NORMAL": 13,
            "POSITION": 12,
            "TEXCOORD_0": 14
          },
          "indices": 15,
          "material": 1,
          "mode": 4
        }
      ]
    }
  ],
  "nodes": [
    {
      "children": [
        1
      ],
      "matrix": [
        1.0,
        0.0,
        0.0,
        0.0,
        0.0,
        2.220446049250313e-16,
        -1.0,
        0.0,
        0.0,
        1.0,
        2.220446049250313e-16,
        0.0,
        0.0,
        0.0,
        0.0,
        1.0
      ],
      "name": "Sketchfab_model"
    },
    {
      "children": [
        2
      ],
      "name": "Collada visual scene group"
    },
    {
      "children": [
        3
      ],
      "matrix": [
        1.0,
        0.0,
        0.0,
        0.0,
        0.0,
        2.220446049250313e-16,
        1.0,
        0.0,
        0.0,
        -1.0,
        2.220446049250313e-16,
        0.0,
        0.0,
        0.0,
        0.0,
        1.0
      ],
      "name": "Rentorar"
    },
    {
      "children": [
        4
      ],
      "name": "Origin"
    },
    {
      "children": [
        5,
        6,
        7,
        8
      ],
      "name": "Object_4"
    },
    {
      "mesh": 0,
      "name": "Object_5"
    },
    {
      "mesh": 1,
      "name": "Object_6"
    },
    {
      "mesh": 2,
      "name": "Object_7"
    },
    {
      "mesh": 3,
      "name": "Object_8"
    }
  ],
  "samplers": [
    {
      "magFilter": 9729,
      "minFilter": 9987,
      "wrapS": 10497,
      "wrapT": 10497
    }
  ],
  "scene": 0,
  "scenes": [
    {
      "name": "Sketchfab_Scene",
      "nodes": [
        0
      ]
    }
  ],
  "textures": [
    {
      "sampler": 0,
      "source": 0
    },
    {
      "sampler": 0,
      "source": 1
    }
  ]
}
