{
  "accessors": [
    {
      "bufferView": 2,
      "componentType": 5126,
      "count": 1537,
      "max": [
        1.6111979484558105,
        2.0101020336151123,
        3.177064895629883
      ],
      "min": [
        -1.6111990213394165,
        -3.0038158893585205,
        -0.005808643996715546
      ],
      "type": "VEC3"
    },
    {
      "bufferView": 2,
      "byteOffset": 18444,
      "componentType": 5126,
      "count": 1537,
      "max": [
        0.9998427033424377,
        0.9999890923500061,
        0.9999797940254211
      ],
      "min": [
        -0.9998427033424377,
        -0.9999104142189026,
        -0.9993776082992554
      ],
      "type": "VEC3"
    },
    {
      "bufferView": 1,
      "componentType": 5126,
      "count": 1537,
      "max": [
        0.6838449239730835,
        0.9766747951507568
      ],
      "min": [
        0.017536669969558716,
        0.023268580436706543
      ],
      "type": "VEC2"
    },
    {
      "bufferView": 0,
      "componentType": 5125,
      "count": 7572,
      "type": "SCALAR"
    },
    {
      "bufferView": 2,
      "byteOffset": 36888,
      "componentType": 5126,
      "count": 18,
      "max": [
        0.7199251055717468,
        -2.240391969680786,
        2.3842580318450928
      ],
      "min": [
        -0.7199252843856812,
        -2.5750620365142822,
        1.7960139513015747
      ],
      "type": "VEC3"
    },
    {
      "bufferView": 2,
      "byteOffset": 37104,
      "componentType": 5126,
      "count": 18,
      "max": [
        0.6925700902938843,
        -0.6862433552742004,
        0.489311158657074
      ],
      "min": [
        -0.6925698518753052,
        -0.8615683913230896,
        0.1893710047006607
      ],
      "type": "VEC3"
    },
    {
      "bufferView": 1,
      "byteOffset": 12296,
      "componentType": 5126,
      "count": 18,
      "max": [
        0.9322729706764221,
        0.9883763790130615
      ],
      "min": [
        0.7885242104530334,
        0.8290051817893982
      ],
      "type": "VEC2"
    },
    {
      "bufferView": 0,
      "byteOffset": 30288,
      "componentType": 5125,
      "count": 48,
      "type": "SCALAR"
    }
  ],
  "asset": {
    "extras": {
      "author": "jackiebatteau (https://sketchfab.com/jackiebatteau)",
      "license": "CC-BY-4.0 (http://creativecommons.org/licenses/by/4.0/)",
      "source": "https://sketchfab.com/3d-models/wii-pokemon-battle-revolution-399-bidoof-2aa3fa8cbc024e71a3780dcf786f44da",
      "title": "Wii - Pokemon Battle Revolution - 399 Bidoof"
    },
    "generator": "Sketchfab-16.63.0",
    "version": "2.0"
  },
  "bufferViews": [
    {
      "buffer": 0,
      "byteLength": 30480,
      "name": "floatBufferViews",
      "target": 34963
    },
    {
      "buffer": 0,
      "byteLength": 12440,
      "byteOffset": 30480,
      "byteStride": 8,
      "name": "floatBufferViews",
      "target": 34962
    },
    {
      "buffer": 0,
      "byteLength": 37320,
      "byteOffset": 42920,
      "byteStride": 12,
      "name": "floatBufferViews",
      "target": 34962
    }
  ],
  "buffers": [
    {
      "byteLength": 80240,
      "uri": "scene.bin"
    }
  ],
  "images": [
    {
      "uri": "textures/body_baseColor.png"
    }
  ],
  "materials": [
    {
      "doubleSided": true,
      "name": "body",
      "pbrMetallicRoughness": {
        "baseColorTexture": {
          "index": 0
        },
        "metallicFactor": 0.0,
        "roughnessFactor": 0.8848314955661687
      }
    },
    {
      "doubleSided": true,
      "name": "material",
      "pbrMetallicRoughness": {
        "baseColorTexture": {
          "index": 0
        },
        "metallicFactor": 0.0,
        "roughnessFactor": 0.8848314955661687
      }
    }
  ],
  "meshes": [
    {
      "name": "Object_0",
      "primitives": [
        {
          "attributes": {
            "NORMAL": 1,
            "POSITION": 0,
            "TEXCOORD_0": 2
          },
          "indices": 3,
          "material": 0,
          "mode": 4
        }
      ]
    },
    {
      "name": "Object_1",
      "primitives": [
        {
          "attributes": {
            "NORMAL": 5,
            "POSITION": 4,
            "TEXCOORD_0": 6
          },
          "indices": 7,
          "material": 1,
          "mode": 4
        }
      ]
    }
  ],
  "nodes": [
    {
      "children": [
        1
      ],
      "matrix": [
        1.0,
        0.0,
        0.0,
        0.0,
        0.0,
        2.220446049250313e-16,
        -1.0,
        0.0,
        0.0,
        1.0,
        2.220446049250313e-16,
        0.0,
        0.0,
        0.0,
        0.0,
        1.0
      ],
      "name": "Sketchfab_model"
    },
    {
      "children": [
        2,
        3
      ],
      "name": "bippa.obj.cleaner.materialmerger.gles"
    },
    {
      "mesh": 0,
      "name": "Object_2"
    },
    {
      "mesh": 1,
      "name": "Object_3"
    }
  ],
  "samplers": [
    {
      "magFilter": 9729,
      "minFilter": 9987,
      "wrapS": 10497,
      "wrapT": 10497
    }
  ],
  "scene": 0,
  "scenes": [
    {
      "name": "Sketchfab_Scene",
      "nodes": [
        0
      ]
    }
  ],
  "textures": [
    {
      "sampler": 0,
      "source": 0
    }
  ]
}
